<?xml version="1.0" standalone="no"?>
<!DOCTYPE svg PUBLIC "-//W3C//DTD SVG 20010904//EN"
 "http://www.w3.org/TR/2001/REC-SVG-20010904/DTD/svg10.dtd">
<svg version="1.0" xmlns="http://www.w3.org/2000/svg"
class="text-red-400"
 width="4676.000000pt" height="925.000000pt" fill="currentColor" stroke="currentColor" viewBox="0 0 4676.000000 925.000000"
 preserveAspectRatio="xMidYMid meet">

<g transform="translate(0.000000,925.000000) scale(0.100000,-0.100000)"
>
<path d="M2967 9239 c-316 -26 -648 -91 -895 -175 -466 -158 -893 -438 -1209
-793 -89 -100 -259 -323 -309 -405 -97 -161 -132 -222 -181 -321 -29 -60 -58
-118 -63 -127 -52 -93 -188 -486 -220 -634 -11 -53 -23 -100 -25 -104 -17 -27
-55 -394 -55 -535 0 -416 104 -882 292 -1305 40 -91 143 -290 261 -505 412
-753 553 -1194 598 -1870 16 -249 6 -338 -60 -540 -35 -110 -97 -279 -116
-320 -37 -82 -54 -227 -36 -308 18 -74 101 -193 212 -302 58 -57 119 -112 135
-122 16 -10 63 -43 104 -74 184 -137 578 -342 875 -456 443 -170 796 -262
1245 -325 54 -7 183 -13 300 -13 193 0 212 2 315 29 61 15 126 36 145 46 61
31 174 141 198 193 20 42 80 239 182 602 45 158 107 356 135 430 34 91 103
186 172 234 133 96 269 118 918 146 388 17 414 19 510 50 103 34 148 55 163
76 7 10 19 19 25 19 22 0 103 92 146 166 63 107 74 179 66 396 -6 154 -4 185
11 230 18 56 70 144 98 167 9 8 32 48 52 89 32 67 35 81 31 136 -2 33 -10 79
-17 102 -18 56 -8 84 54 154 51 57 86 127 86 172 0 10 5 18 10 18 6 0 10 13
10 29 0 17 -4 33 -10 36 -5 3 -10 16 -10 29 0 12 -12 56 -26 96 -19 55 -24 85
-20 115 13 86 55 121 189 161 31 9 57 20 57 23 0 4 17 15 38 24 21 9 70 50
109 90 59 61 74 83 88 131 19 64 15 127 -11 205 -15 46 -207 339 -468 716
-172 247 -208 309 -232 390 -22 75 -22 200 -1 280 68 253 75 688 16 974 -75
367 -207 717 -370 982 -151 246 -411 547 -651 754 -146 125 -423 309 -573 380
-358 168 -1007 318 -1580 365 -140 11 -566 11 -708 -1z m908 -905 c27 -14 35
-26 40 -57 8 -43 18 -75 140 -452 46 -143 103 -321 127 -395 39 -122 46 -137
78 -158 28 -19 45 -23 86 -20 75 6 104 32 160 145 61 123 101 168 184 206 59
28 75 31 170 31 125 1 170 -15 246 -92 91 -91 109 -121 154 -260 24 -73 27
-96 24 -180 -2 -54 -6 -115 -9 -137 -9 -67 -60 -158 -122 -219 -91 -89 -169
-116 -287 -102 -46 6 -66 15 -111 52 -75 62 -105 71 -152 47 -76 -37 -92 -131
-41 -243 14 -30 38 -89 54 -130 16 -41 31 -77 35 -80 3 -3 12 -23 19 -45 7
-22 32 -80 56 -130 23 -49 63 -139 88 -198 44 -103 45 -110 32 -142 -11 -24
-33 -44 -88 -76 -118 -70 -234 -124 -383 -179 l-139 -52 -53 16 c-37 12 -62
28 -87 58 -43 49 -53 95 -38 163 7 27 14 61 17 75 3 14 8 31 10 37 5 15 -27
118 -50 163 -25 48 -78 98 -136 126 -43 22 -64 26 -142 26 -75 0 -106 -5 -167
-27 -163 -59 -290 -205 -274 -314 7 -49 40 -134 65 -168 9 -13 48 -39 88 -59
62 -31 76 -43 92 -78 50 -109 -7 -215 -159 -293 -75 -39 -236 -92 -382 -127
-36 -8 -98 -24 -138 -34 -40 -11 -75 -20 -77 -20 -10 0 -106 -17 -155 -27 -14
-2 -41 -7 -60 -10 -19 -4 -53 -10 -75 -15 -96 -22 -134 0 -158 91 -14 52 -76
291 -118 454 -12 44 -35 118 -51 165 -51 139 -84 193 -140 221 -50 26 -86 19
-155 -28 -45 -30 -103 -91 -103 -107 0 -23 -59 -126 -93 -163 -49 -53 -91 -76
-175 -93 -158 -33 -303 30 -412 178 -124 169 -176 353 -148 527 22 136 119
262 233 304 94 35 167 45 233 32 56 -11 132 -52 132 -71 0 -14 75 -50 105 -50
34 0 133 35 155 55 10 9 23 35 29 58 11 40 8 53 -68 272 -92 266 -186 491
-259 618 -46 80 -40 116 23 146 25 12 47 21 50 21 3 0 34 13 68 29 34 15 80
34 102 41 22 7 45 16 51 21 14 11 420 164 459 173 47 11 57 11 100 2 100 -20
131 -112 76 -230 -62 -133 -44 -214 76 -332 112 -110 258 -136 450 -79 179 53
300 255 251 418 -18 60 -90 129 -168 161 -36 15 -81 36 -100 46 -41 22 -80 88
-80 136 0 52 28 111 64 133 49 30 347 124 496 157 19 4 37 8 40 9 32 9 262 66
284 70 10 3 21 6 23 9 9 8 55 -2 88 -20z"/>
<path d="M17265 6364 c-196 -40 -667 -122 -921 -160 l-111 -16 17 -109 c9 -59
19 -112 24 -116 4 -4 91 -31 194 -59 l187 -51 6 -219 c8 -288 8 -2830 0 -2959
l-6 -100 -199 -55 c-113 -32 -201 -61 -204 -69 -2 -7 1 -64 8 -127 l12 -114
827 1 826 1 32 37 33 38 -8 89 -7 88 -195 56 -195 55 -8 75 c-9 83 -1 3513 9
3627 l6 72 -43 30 c-23 17 -49 30 -58 29 -9 0 -110 -20 -226 -44z"/>
<path d="M33680 6364 c-171 -35 -726 -131 -921 -160 -28 -4 -43 -15 -67 -47
l-30 -42 13 -73 c7 -40 16 -77 21 -81 5 -5 90 -30 189 -56 99 -26 183 -50 186
-54 4 -3 9 -218 13 -477 l6 -470 -248 4 c-261 5 -369 -3 -544 -38 -554 -113
-936 -466 -1062 -982 -39 -161 -49 -275 -43 -501 4 -168 9 -220 30 -307 108
-453 412 -786 817 -894 253 -68 567 -57 790 27 87 33 203 91 270 137 l56 38
44 -57 c179 -225 511 -249 1073 -80 83 25 136 47 134 53 -3 6 -10 59 -18 118
l-13 108 -30 4 c-17 3 -76 7 -131 9 -175 8 -200 31 -217 201 -10 104 -3 3312
8 3511 l5 100 -44 28 c-24 15 -50 27 -58 26 -8 -1 -111 -21 -229 -45z m-650
-1887 l55 -12 0 -870 0 -870 -30 -14 c-107 -52 -332 -76 -442 -48 -95 25 -162
63 -230 133 -208 212 -290 698 -193 1146 69 318 247 504 525 548 72 11 239 4
315 -13z"/>
<path d="M46160 6389 c-134 -31 -652 -124 -915 -164 -132 -21 -241 -38 -242
-39 -6 -5 32 -222 40 -227 5 -4 92 -28 193 -55 l183 -49 6 -40 c3 -22 4 -760
3 -1640 l-3 -1600 -205 -56 c-113 -31 -205 -60 -205 -65 1 -27 17 -184 22
-211 l5 -33 822 0 822 0 34 35 c32 33 33 35 31 115 -1 45 -4 87 -7 94 -3 7
-92 37 -199 66 l-195 54 -6 31 c-8 44 2 3673 11 3711 6 28 3 34 -36 62 -49 37
-47 37 -159 11z"/>
<path d="M13111 6190 c-190 -51 -316 -192 -343 -384 -45 -321 188 -568 514
-542 143 12 254 61 336 150 88 95 122 190 122 337 0 216 -98 364 -285 429 -90
32 -247 36 -344 10z"/>
<path d="M15061 6194 c-252 -54 -398 -274 -361 -541 39 -290 333 -457 641
-367 229 67 361 285 329 541 -36 279 -295 436 -609 367z"/>
<path d="M35351 6190 c-157 -42 -264 -138 -321 -285 -33 -87 -34 -264 -1 -347
52 -132 154 -229 284 -270 99 -32 253 -31 347 1 155 54 266 168 304 316 23 85
21 228 -4 307 -39 125 -135 223 -268 269 -86 31 -245 35 -341 9z"/>
<path d="M9905 6119 c-99 -5 -386 -7 -637 -6 l-458 2 -35 -35 -35 -35 7 -96 6
-97 206 -59 206 -59 7 -45 c9 -58 9 -3000 0 -3059 l-7 -44 -209 -58 c-115 -31
-211 -60 -214 -63 -5 -4 15 -246 21 -251 1 -1 430 -3 952 -5 1028 -3 1017 -4
1290 53 202 41 430 131 582 230 279 182 438 442 474 775 39 364 -88 683 -353
886 -83 63 -218 136 -315 168 l-65 21 81 46 c298 168 459 407 492 729 25 247
-43 475 -192 638 -166 180 -410 291 -779 351 -123 20 -722 28 -1025 13z m630
-413 c193 -52 297 -154 352 -346 26 -94 26 -423 -1 -525 -42 -160 -117 -259
-239 -315 -95 -44 -194 -60 -372 -60 l-155 0 2 628 3 627 35 7 c61 12 310 1
375 -16z m24 -1656 c301 -61 453 -250 481 -597 16 -206 -20 -430 -91 -563 -67
-126 -180 -219 -322 -267 -78 -26 -92 -27 -277 -28 -107 0 -203 3 -212 7 -17
7 -18 52 -18 737 l0 730 23 5 c48 10 325 -5 416 -24z"/>
<path d="M13510 4908 c-194 -41 -577 -110 -855 -154 -132 -20 -241 -38 -243
-40 -6 -4 28 -218 36 -225 4 -4 88 -27 186 -53 99 -25 182 -49 185 -52 8 -8
14 -1718 6 -1769 l-6 -41 -197 -53 c-108 -30 -200 -57 -204 -60 -5 -4 -2 -61
5 -126 l12 -120 824 -3 825 -2 34 32 34 33 -6 94 c-3 52 -7 95 -8 96 -2 1 -91
26 -198 56 l-195 54 -1 1154 0 1154 -35 28 c-19 16 -41 28 -49 27 -8 0 -76
-14 -150 -30z"/>
<path d="M15420 4904 c-188 -40 -648 -122 -898 -160 l-182 -28 6 -45 c3 -25
11 -77 17 -116 l12 -69 184 -48 c101 -26 186 -50 190 -53 3 -4 6 -498 6 -1098
0 -1181 0 -1187 -55 -1403 -40 -155 -197 -430 -406 -711 -46 -62 -84 -115 -84
-117 0 -4 140 -126 232 -204 16 -13 25 -9 88 43 364 298 695 620 857 836 156
207 246 449 273 734 6 66 10 507 11 1105 1 547 4 1066 7 1153 l7 158 -46 30
c-25 16 -50 28 -55 28 -5 -1 -79 -17 -164 -35z"/>
<path d="M25075 4908 c-190 -41 -575 -111 -850 -154 -132 -21 -241 -38 -242
-39 -1 0 6 -52 15 -115 l17 -114 184 -47 c101 -27 186 -51 190 -54 3 -4 7
-412 9 -908 l3 -902 -203 -55 -203 -56 1 -59 c0 -33 4 -90 8 -127 l8 -68 792
0 792 0 32 33 c29 30 32 39 32 92 0 33 -3 76 -6 95 l-6 35 -161 49 c-89 27
-165 54 -169 60 -4 6 -8 399 -8 872 l0 861 58 26 c110 50 208 71 327 71 274 1
398 -115 435 -406 12 -96 14 -1407 2 -1425 -4 -7 -37 -21 -72 -32 -36 -11
-110 -33 -165 -50 l-100 -30 9 -126 9 -125 787 0 786 0 32 33 c34 35 39 64 26
172 l-6 50 -190 54 c-104 30 -192 59 -196 65 -3 6 -9 382 -13 836 -6 813 -6
826 -28 905 -89 316 -321 521 -658 580 -122 21 -326 19 -465 -4 -150 -26 -274
-68 -437 -146 -73 -36 -135 -65 -137 -65 -2 0 -5 44 -6 98 l-3 97 -50 26 -50
26 -130 -29z"/>
<path d="M35750 4908 c-194 -41 -577 -110 -855 -154 -132 -20 -241 -38 -243
-40 -6 -4 28 -218 36 -225 4 -4 88 -27 186 -53 99 -25 182 -49 185 -52 8 -8
14 -1717 7 -1768 l-7 -41 -197 -54 c-108 -30 -200 -57 -205 -61 -4 -3 -2 -61
5 -128 l12 -122 826 0 826 0 34 34 33 35 -7 93 c-4 51 -8 93 -9 93 -1 1 -90
26 -197 56 l-195 54 -1 1154 -1 1154 -34 28 c-19 16 -41 28 -49 27 -8 0 -76
-14 -150 -30z"/>
<path d="M42430 4904 c-216 -46 -606 -117 -858 -155 l-213 -33 6 -50 c4 -28
12 -80 18 -116 l12 -65 184 -47 c101 -26 186 -50 190 -53 3 -4 7 -411 9 -906
l3 -899 -23 -9 c-13 -5 -104 -30 -203 -56 -99 -26 -183 -51 -186 -54 -4 -3 -1
-58 7 -121 7 -63 13 -118 13 -122 1 -5 356 -8 789 -8 l788 0 38 39 38 39 -9
88 -8 89 -165 50 -165 51 0 875 0 874 90 34 c306 115 574 58 669 -142 54 -116
56 -144 56 -926 l0 -719 -72 -22 c-40 -12 -117 -35 -171 -51 l-99 -30 6 -37
c3 -20 8 -76 12 -125 l6 -87 788 0 787 0 32 40 32 40 -8 87 -8 87 -185 54
c-102 30 -189 58 -195 63 -6 7 -12 303 -16 827 -5 802 -6 819 -27 902 -13 47
-44 128 -69 180 -39 78 -62 110 -133 181 -89 90 -161 138 -272 182 -131 53
-187 61 -403 62 -173 0 -214 -3 -304 -23 -138 -31 -252 -72 -391 -140 -63 -32
-118 -58 -122 -60 -4 -2 -9 40 -10 93 l-3 96 -50 28 -50 28 -155 -33z"/>
<path d="M19590 4914 c-228 -29 -428 -94 -605 -199 -472 -280 -716 -779 -666
-1365 29 -349 168 -651 384 -831 323 -270 737 -394 1252 -376 93 4 215 13 270
22 228 35 485 115 678 211 98 50 93 38 76 176 -11 86 -13 89 -51 120 l-39 31
-119 -17 c-271 -39 -516 -42 -749 -10 -144 19 -238 47 -356 104 -86 41 -111
59 -173 124 -77 82 -126 166 -161 280 -25 80 -51 231 -51 294 l0 42 854 0 853
0 6 83 c35 443 -75 787 -328 1025 -140 132 -307 216 -520 262 -81 18 -141 22
-310 25 -115 2 -226 1 -245 -1z m267 -412 c107 -55 163 -199 179 -462 l7 -110
-373 0 -373 0 7 55 c9 75 51 206 97 296 41 82 123 180 173 206 92 48 206 54
283 15z"/>
<path d="M22435 4913 c-305 -38 -491 -100 -671 -224 -231 -160 -351 -440 -316
-739 20 -172 78 -294 197 -416 132 -135 290 -217 660 -344 364 -124 463 -179
508 -280 25 -55 27 -143 4 -186 -38 -74 -134 -133 -257 -160 -116 -25 -367
-16 -492 17 l-36 9 -102 306 c-84 252 -105 304 -118 300 -10 -3 -64 -12 -122
-21 -57 -9 -106 -17 -107 -19 -2 -1 -15 -65 -29 -142 -29 -162 -73 -361 -115
-526 -16 -64 -29 -121 -29 -126 0 -21 232 -107 410 -152 216 -54 312 -65 575
-64 199 1 260 4 355 22 157 29 278 65 386 116 256 121 409 282 482 504 34 105
42 305 18 414 -51 228 -216 413 -493 552 -98 49 -176 79 -453 176 -325 113
-358 126 -414 162 -57 37 -85 90 -86 161 0 62 19 105 64 145 93 81 213 114
421 114 143 0 281 -14 298 -31 4 -4 44 -125 89 -267 44 -142 81 -260 82 -261
3 -3 259 36 261 40 1 1 18 90 39 197 20 107 56 280 78 383 35 159 39 190 27
198 -58 38 -365 112 -555 134 -117 14 -473 19 -559 8z"/>
<path d="M29065 4914 c-384 -45 -663 -164 -898 -384 -212 -199 -351 -460 -402
-755 -21 -120 -24 -381 -6 -500 72 -472 352 -835 786 -1016 202 -85 379 -114
675 -113 185 1 246 5 344 22 526 97 944 434 1104 893 64 182 77 271 77 519 0
182 -4 241 -19 309 -126 576 -551 942 -1186 1020 -77 10 -403 13 -475 5z m266
-398 c177 -38 290 -158 363 -386 69 -212 96 -486 77 -773 -29 -453 -129 -693
-324 -783 -57 -27 -71 -29 -182 -29 -114 0 -123 2 -188 32 -92 44 -157 114
-212 228 -110 227 -161 569 -136 924 24 351 85 553 206 677 60 60 115 91 199
109 80 18 117 18 197 1z"/>
<path d="M37780 4899 c-525 -61 -891 -346 -986 -770 -26 -114 -24 -340 4 -451
46 -188 133 -324 289 -458 l53 -45 -51 -65 c-135 -171 -262 -399 -294 -525
-22 -87 -20 -212 6 -280 22 -60 98 -150 155 -186 l35 -21 -93 -97 c-51 -53
-110 -121 -129 -151 -186 -283 -182 -533 10 -720 172 -167 443 -261 841 -291
434 -33 857 43 1209 217 254 125 430 267 542 438 106 160 149 311 149 519 0
217 -55 362 -186 494 -113 113 -295 193 -534 235 -56 9 -234 13 -705 13 -417
0 -640 4 -660 11 -29 10 -30 13 -29 65 1 33 12 80 29 122 26 65 29 68 54 62
416 -106 836 -81 1144 68 297 143 479 365 542 662 12 53 17 126 17 215 0 163
-20 251 -87 385 -24 49 -41 92 -37 95 4 4 129 37 277 75 149 37 273 70 276 74
4 3 0 62 -8 132 l-15 125 -507 0 c-439 -1 -520 1 -611 17 -257 43 -521 56
-700 36z m315 -358 c81 -37 135 -125 170 -275 53 -229 40 -603 -27 -795 -27
-79 -86 -144 -144 -160 -57 -16 -159 -13 -202 5 -46 19 -98 68 -123 116 -117
228 -119 824 -3 1025 43 74 99 101 214 102 52 0 87 -5 115 -18z m443 -2541
c243 -26 335 -94 334 -244 -2 -156 -97 -273 -303 -370 -198 -94 -398 -131
-659 -123 -261 8 -411 56 -522 167 -86 86 -106 175 -73 331 9 40 30 109 48
153 l32 81 275 5 c520 10 771 10 868 0z"/>
<path d="M40229 3101 c-169 -54 -285 -177 -320 -342 -7 -30 -9 -100 -7 -161 4
-102 7 -112 46 -192 68 -137 174 -218 327 -251 239 -50 462 49 560 249 141
287 1 625 -290 701 -82 21 -244 19 -316 -4z"/>
</g>
</svg>
