<?xml version="1.0" standalone="no"?>
<!DOCTYPE svg PUBLIC "-//W3C//DTD SVG 20010904//EN"
 "http://www.w3.org/TR/2001/REC-SVG-20010904/DTD/svg10.dtd">
<svg version="1.0" xmlns="http://www.w3.org/2000/svg"
 width="260.000000pt" height="260.000000pt" viewBox="0 0 260.000000 260.000000"
 preserveAspectRatio="xMidYMid meet">
<metadata>
Created by potrace 1.14, written by Peter Selinger 2001-2017
</metadata>
<g transform="translate(0.000000,260.000000) scale(0.100000,-0.100000)"
fill="#000000" stroke="none">
<path d="M1028 2548 c-355 -33 -634 -283 -729 -651 -22 -85 -29 -200 -16 -300
13 -109 73 -259 174 -437 33 -58 91 -211 107 -280 8 -36 17 -105 21 -155 6
-84 4 -97 -25 -185 -36 -106 -39 -140 -15 -176 117 -178 587 -351 846 -310 75
11 105 56 143 211 11 45 38 127 49 149 32 61 94 81 266 85 115 3 146 8 187 27
58 28 79 67 81 156 2 65 7 84 29 117 20 32 25 48 21 80 -2 23 -1 41 3 41 4 0
15 16 25 35 13 29 14 42 5 70 -15 45 -5 72 28 80 31 6 74 40 89 70 18 36 4 67
-92 210 -51 77 -96 153 -98 170 -2 16 2 57 8 91 54 291 -122 635 -405 792
-157 87 -455 134 -702 110z m346 -383 c26 -79 51 -147 56 -150 20 -12 51 7 70
44 38 76 130 81 177 10 78 -118 -9 -266 -118 -202 -27 16 -30 16 -46 0 -20
-19 -15 -38 44 -166 19 -40 32 -80 29 -88 -3 -8 -40 -30 -82 -50 -64 -29 -81
-33 -100 -24 -26 12 -26 10 -28 82 -1 41 -6 54 -26 69 -47 37 -141 15 -170
-40 -12 -23 3 -90 21 -90 5 0 18 -9 29 -20 16 -16 18 -24 9 -43 -6 -13 -23
-31 -38 -40 -29 -17 -158 -52 -233 -62 l-46 -7 -15 54 c-8 29 -22 78 -31 109
-9 31 -24 67 -35 80 -16 20 -22 22 -44 12 -14 -6 -35 -30 -48 -52 -37 -66
-106 -73 -162 -17 -32 32 -57 91 -57 135 0 30 25 77 52 95 29 20 92 21 108 1
22 -26 72 -17 82 15 6 20 -37 141 -84 237 -12 25 -7 45 13 49 7 2 46 16 85 32
96 41 128 47 147 28 12 -12 13 -22 4 -56 -8 -29 -8 -46 -1 -58 16 -26 72 -61
92 -57 9 2 27 4 40 4 13 1 37 14 53 30 39 39 40 91 3 120 -15 12 -33 21 -40
21 -20 0 -33 32 -24 56 7 17 68 50 87 47 1 0 31 8 65 18 118 33 110 40 162
-126z"/>
</g>
</svg>
